<svg width="92" height="80" viewBox="0 0 92 80" fill="none" xmlns="http://www.w3.org/2000/svg">
<path fill-rule="evenodd" clip-rule="evenodd" d="M79.442 57.6259C80.1579 57.6246 80.8737 57.6234 81.5896 57.6234C82.315 57.6234 83.0405 57.6217 83.766 57.6201C85.725 57.6158 87.6843 57.6114 89.6448 57.6388C90.3799 57.6476 90.6668 57.4887 90.658 56.6786C90.6183 52.4512 90.6205 48.2216 90.658 43.992C90.6646 43.1885 90.3887 43.0141 89.647 43.0229C88.1276 43.0407 86.6077 43.0396 85.0878 43.0385C83.4079 43.0373 81.728 43.0361 80.0487 43.0605C79.2673 43.0737 79.1856 42.8198 79.371 42.1708C79.5691 41.4793 79.7255 40.7753 79.8815 40.0731C80.0193 39.4528 80.1568 38.8338 80.3225 38.226C81.1449 35.2039 81.4802 32.1155 81.8149 29.0312C81.8665 28.5558 81.9181 28.0806 81.9715 27.6057C82.4518 23.341 82.4083 19.0509 82.3648 14.7603L82.3622 14.4997C82.3357 11.7779 81.2606 9.694 79.2297 8.00085C76.1304 5.41807 72.349 4.31873 68.5918 3.24147C63.0559 1.65616 57.339 1.16965 51.6324 0.684011C51.3951 0.66382 51.1579 0.643631 50.9207 0.623364C44.1282 0.0427904 37.3843 0.709457 30.6646 1.60791C27.5211 2.02734 24.4262 2.68959 21.3512 3.57921C18.0752 4.52623 14.9339 5.61453 12.179 7.64102C9.78383 9.40482 8.43063 11.7139 8.59177 14.7955C8.64275 15.7753 8.6282 16.7584 8.61366 17.7409C8.60806 18.1198 8.60245 18.4987 8.60061 18.8772C8.55866 26.7713 9.36661 34.5593 11.5741 42.162C11.8236 43.0185 11.4792 43.0538 10.8081 43.0494C9.47355 43.0401 8.13899 43.0414 6.80459 43.0427C4.97602 43.0445 3.14777 43.0462 1.32025 43.0207C0.510098 43.0097 0.26065 43.215 0.26948 44.0582C0.315837 48.1752 0.320252 52.2967 0.267272 56.4137C0.256235 57.3518 0.441665 57.6565 1.4527 57.6454C4.42211 57.613 7.39223 57.6144 10.3623 57.6158C12.6516 57.6168 14.9409 57.6179 17.2297 57.6035C17.9781 57.5991 18.4306 57.822 18.8346 58.4556C24.2849 66.9854 31.6448 73.4181 40.5476 78.1421C43.7971 79.8662 47.0818 79.7139 50.3247 78.173C52.4682 77.1554 54.4549 75.8463 56.4174 74.5152C62.7772 70.1973 68.0576 64.8154 72.2033 58.3342C72.5432 57.8022 72.9119 57.6035 73.5366 57.6101C75.5051 57.6328 77.4736 57.6293 79.442 57.6259ZM53.6191 56.5256C50.9013 56.5259 48.1836 56.5262 45.466 56.5262C38.3688 56.5251 31.2717 56.5251 24.1748 56.5251C17.078 56.5251 9.9814 56.5251 2.88537 56.524C1.43284 56.524 1.43284 56.5196 1.43284 55.0516C1.43284 54.1638 1.43458 53.276 1.43633 52.3882C1.4411 49.967 1.44586 47.5457 1.41518 45.1245C1.40635 44.3408 1.64696 44.1576 2.40635 44.1576C31.0885 44.1774 59.7706 44.1774 88.4527 44.1554C89.3225 44.1554 89.5542 44.3827 89.541 45.2481C89.4902 48.5947 89.4748 51.9412 89.5476 55.2856C89.5719 56.3209 89.2518 56.5483 88.2695 56.5461C76.7183 56.5229 65.1685 56.5242 53.6191 56.5256Z" fill="#F7ED17"/>
<path d="M45.4593 43.0406C54.8765 43.0406 64.2916 43.0317 73.7088 43.056C74.4792 43.0582 74.8721 42.8905 75.1017 42.0803C75.9626 39.045 76.6271 35.9721 77.1437 32.8618C78.1569 26.7382 78.1392 20.5638 78.1083 14.385C78.1017 13.1223 77.6006 12.1267 76.6514 11.3143C75.9472 10.7117 75.1922 10.2017 74.3644 9.79113C70.9141 8.08032 67.2121 7.24809 63.4571 6.50637C57.7949 5.38937 52.0774 4.74036 46.3247 4.69621C38.1834 4.63219 30.1238 5.56155 22.2386 7.67634C19.3313 8.45559 16.4571 9.38495 14.1392 11.4644C13.2695 12.2437 12.8589 13.1885 12.8523 14.3805C12.8368 16.9898 12.7728 19.5969 12.8611 22.2084C13.0863 28.9037 13.8434 35.5108 15.7927 41.9523C16.0487 42.7978 16.413 43.0693 17.318 43.0649C26.6999 43.0229 36.0796 43.0384 45.4593 43.0406Z" fill="white"/>
<path d="M23.3909 57.6476C23.5675 57.9501 23.647 58.1134 23.7507 58.2569C28.7596 65.2282 35.1812 70.5439 42.7662 74.4997C43.1746 74.7117 43.5719 75.0958 43.9869 75.1134C45.4483 75.1752 46.9141 75.173 48.2783 74.4534C55.7044 70.5373 62.0289 65.3276 66.998 58.5284C67.1746 58.2878 67.5189 58.0847 67.349 57.6476C52.7618 57.6476 38.1746 57.6476 23.3909 57.6476Z" fill="white"/>
<path fill-rule="evenodd" clip-rule="evenodd" d="M2.88317 56.5262H45.466C48.0603 56.5262 50.6546 56.5259 53.2488 56.5256H53.249H53.2492H53.2494H53.2496H53.2498H53.2501H53.2503H53.2505H53.2507H53.2509H53.2512H53.2514H53.2516H53.2518H53.252H53.2522H53.2525H53.2527H53.2529H53.2531C64.926 56.5243 76.5974 56.523 88.2673 56.5483C89.2496 56.5505 89.5675 56.3231 89.5454 55.2878C89.4726 51.9434 89.488 48.5947 89.5388 45.2503C89.552 44.385 89.3225 44.1576 88.4505 44.1576C59.7684 44.1819 31.0863 44.1797 2.40415 44.1598C1.64476 44.1598 1.40415 44.343 1.41298 45.1267C1.44367 47.5479 1.4389 49.9692 1.43413 52.3904C1.43238 53.2782 1.43064 54.166 1.43064 55.0538C1.43064 56.5218 1.43064 56.5262 2.88317 56.5262ZM53.3667 51.0418C53.3165 50.5778 53.2649 50.1007 52.9781 49.6432C52.9035 49.8639 52.8264 50.0776 52.7507 50.2874C52.569 50.7912 52.3956 51.2719 52.2849 51.7691C52.1702 52.2635 51.8324 52.3673 51.4593 52.4357C51.0692 52.506 51.0022 52.2363 50.9388 51.9809L50.9388 51.9809C50.9225 51.9154 50.9065 51.8509 50.8854 51.7933C50.7021 51.2917 50.5298 50.7868 50.3346 50.2149C50.2523 49.9738 50.166 49.7208 50.073 49.4512C50.0133 49.7567 49.9531 50.0402 49.8961 50.3089L49.8961 50.3089C49.7719 50.8944 49.6625 51.4097 49.605 51.9302C49.5432 52.4821 49.2342 52.4755 48.8479 52.4357C48.4236 52.3909 48.5059 52.1575 48.5802 51.9469C48.6009 51.888 48.6211 51.8308 48.6293 51.7801C48.7379 51.1056 48.8548 50.433 48.9717 49.7602L48.9718 49.7597C49.0806 49.1335 49.1894 48.5072 49.2916 47.8794L49.2959 47.8534C49.351 47.5186 49.396 47.2455 49.8501 47.2304C50.3158 47.215 50.4969 47.46 50.6205 47.8463C50.8043 48.4216 50.9972 48.9949 51.219 49.6545L51.2192 49.655L51.2192 49.655L51.2193 49.6555L51.2222 49.6639C51.3297 49.9836 51.444 50.3236 51.5675 50.694C51.6833 50.3501 51.7915 50.0335 51.8934 49.7356L51.8936 49.735C52.1277 49.0505 52.328 48.4649 52.5079 47.8728C52.6448 47.4203 52.8743 47.1841 53.3666 47.2437C53.7513 47.2883 53.7606 47.5173 53.7707 47.7665C53.7735 47.8376 53.7765 47.9104 53.7883 47.981C53.8896 48.5738 54.0035 49.1644 54.1175 49.7553L54.1175 49.7556C54.237 50.3748 54.3565 50.9943 54.4615 51.6167C54.4719 51.6801 54.4993 51.7522 54.5277 51.8268C54.6258 52.0848 54.7355 52.3734 54.1944 52.4401C53.653 52.5091 53.5788 52.1901 53.4862 51.7925L53.4704 51.7249C53.4166 51.5032 53.3918 51.2742 53.3667 51.0418ZM75.0664 52.7558C75.4902 53.7359 76.2982 54.1532 77.4328 53.9236C78.3754 53.7337 78.9141 53.1664 78.9185 52.1664C78.9199 51.9507 78.9248 51.735 78.9298 51.5194C78.9408 51.0377 78.9519 50.5563 78.9229 50.0759C78.914 49.9319 78.9271 49.7649 78.9404 49.5958C78.9933 48.9224 79.0489 48.2146 77.7309 48.7845C77.6556 48.8174 77.5464 48.7603 77.4322 48.7006C77.3621 48.6639 77.2902 48.6264 77.2231 48.6079C76.115 48.3099 75.1591 48.9368 74.9781 50.0737C74.711 51.7382 75.7728 52.5947 77.8898 52.3408C77.4137 53.1655 76.8207 52.9712 76.2414 52.7813C75.8267 52.6454 75.4191 52.5118 75.0664 52.7558ZM20.849 50.8909L20.849 50.8897C20.8484 50.7466 20.8479 50.6034 20.8479 50.46C20.8479 50.3525 20.8506 50.2449 20.8534 50.1372C20.8592 49.9132 20.865 49.6895 20.8456 49.4688C20.775 48.7503 21.0378 48.7127 21.6092 48.6309L21.6092 48.6309C21.6803 48.6207 21.7562 48.6098 21.8368 48.5969C22.2929 48.5238 22.7365 48.6012 23.1785 48.6785C23.8042 48.7878 24.4268 48.8965 25.0774 48.577C25.7883 48.2282 26.5123 48.6808 26.669 49.4777C26.7827 50.0608 26.7771 50.6686 26.7716 51.2743V51.2744C26.7697 51.4803 26.7678 51.686 26.7706 51.8905C26.775 52.2702 26.4064 52.3761 26.1702 52.4026C25.828 52.4401 25.7044 52.1333 25.7022 51.8066V51.8059C25.7 51.2542 25.6977 50.7026 25.6911 50.151C25.6867 49.8176 25.5432 49.5858 25.19 49.5351C24.8633 49.4887 24.6161 49.6101 24.477 49.9192C24.2673 50.3872 24.1702 50.8662 24.1415 51.3894C24.1363 51.4789 24.1613 51.5909 24.1874 51.7078C24.2611 52.0377 24.3434 52.4067 23.7794 52.4181C23.1881 52.4305 23.246 52.0795 23.3027 51.7365C23.3266 51.5917 23.3502 51.4482 23.3247 51.3342C23.2747 51.1121 23.278 50.8795 23.2813 50.6464V50.6464V50.6463V50.6463V50.6463V50.6462V50.6462V50.6461V50.6461V50.6461V50.646V50.646V50.646V50.6459V50.6459V50.6459V50.6458V50.6458V50.6458C23.2832 50.5083 23.2851 50.3707 23.2761 50.2348C23.2496 49.8331 23.115 49.4953 22.6293 49.5218C22.19 49.5439 21.9671 49.8375 21.9428 50.2459C21.9097 50.7955 21.9052 51.3496 21.9251 51.8993C21.9406 52.3585 21.7088 52.4401 21.3136 52.449C20.8854 52.4578 20.839 52.226 20.8456 51.8949C20.8518 51.5596 20.8504 51.2255 20.849 50.8909ZM40.2673 48.7801C40.2229 48.7745 40.1839 48.7724 40.1494 48.7705C40.0878 48.7672 40.0406 48.7646 40.0024 48.7448C39.1326 48.29 38.3445 48.4269 37.7463 49.1841C37.1459 49.9457 37.1503 50.8309 37.6072 51.6543C38.0841 52.513 38.8964 52.6984 39.7772 52.396C40.0131 52.3155 40.1712 52.3541 40.3593 52.4C40.3929 52.4082 40.4276 52.4166 40.4637 52.4247C41.0399 52.5483 41.36 52.3165 41.3512 51.6763C41.3313 50.4335 41.3357 49.1885 41.349 47.9457C41.3534 47.5571 41.2717 47.343 40.8103 47.3386C40.371 47.3342 40.2231 47.4843 40.2607 47.9059C40.2792 48.1061 40.275 48.3085 40.2709 48.513V48.5131V48.5131V48.5132V48.5132V48.5133V48.5133V48.5134V48.5134V48.5135V48.5135V48.5136V48.5136V48.5137V48.5137V48.5138V48.5138V48.5139C40.2691 48.6022 40.2673 48.691 40.2673 48.7801ZM17.942 50.8523H17.942H17.9419H17.9419H17.9419H17.9419H17.9419H17.9419H17.9418H17.9418H17.9418C17.6999 50.8559 17.4504 50.8596 17.19 50.8596C17.5454 51.7095 18.0819 51.7845 18.6602 51.5108C19.0929 51.3077 19.6117 51.3033 19.7176 51.6476C19.8666 52.1427 19.3069 52.3161 18.9014 52.4417L18.892 52.4446C17.7 52.8132 16.5057 52.2525 16.2055 51.2061C15.8633 50.0097 16.4351 48.8905 17.5454 48.5858C18.711 48.2657 19.839 48.8993 20.1172 50.0185C20.2607 50.5947 20.1657 50.9192 19.4571 50.8706C18.9672 50.8372 18.4732 50.8445 17.942 50.8523ZM56.7245 50.8667L56.7246 50.8667C57.2087 50.872 57.6342 50.8767 58.0576 50.8507C58.147 50.8454 58.2464 50.8593 58.3471 50.8735C58.6195 50.9117 58.902 50.9513 59.0245 50.6145C59.1635 50.2348 59.0311 49.8242 58.817 49.4622C58.2894 48.5726 57.0686 48.2238 56.1172 48.6984C55.1679 49.1708 54.7596 50.449 55.2386 51.449C55.6977 52.4114 56.8964 52.8397 57.9715 52.4026L58.0012 52.3906C58.3338 52.2567 58.8045 52.0671 58.6845 51.7006C58.5697 51.3496 58.1216 51.2547 57.6646 51.4865C57.1017 51.7735 56.541 51.7337 56.0399 50.8618C56.283 50.8618 56.5095 50.8643 56.7245 50.8667ZM43.2428 50.9162C43.2024 50.9313 43.1535 50.9495 43.0907 50.9699C43.5013 51.7161 44.062 51.7845 44.6271 51.4887C45.0929 51.2481 45.5498 51.3761 45.6646 51.6962C45.7936 52.0581 45.3426 52.2416 45.0168 52.3743L44.9582 52.3982C43.8854 52.8397 42.6072 52.3563 42.1437 51.3629C41.7022 50.4136 42.2033 49.1046 43.1724 48.6763C44.1812 48.2304 45.3401 48.6079 45.828 49.5417C46.3313 50.5064 46.1282 50.8507 45.0532 50.8574L44.6411 50.8604C44.2273 50.8633 43.8142 50.8662 43.3997 50.8728C43.3552 50.8742 43.3115 50.8905 43.2428 50.9162ZM85.3379 50.6234H85.296C85.296 50.4328 85.3115 50.2364 85.327 50.0402L85.327 50.0399C85.3622 49.5951 85.3973 49.1509 85.2518 48.7757C85.1198 48.4347 84.8675 48.5352 84.5931 48.6445C84.3631 48.7361 84.1174 48.834 83.9141 48.683C83.8633 48.6458 83.7986 48.626 83.7354 48.6066L83.711 48.5991C82.9097 48.343 82.2408 48.5792 81.7772 49.2415C81.2253 50.0317 81.1834 50.9125 81.7331 51.7117C82.1547 52.3209 82.6933 52.8507 83.5476 52.2856C83.6757 52.1995 83.9295 52.2061 84.0841 52.2702C85.2783 52.7757 85.4593 52.1598 85.3401 51.173C85.3266 51.0499 85.3305 50.9248 85.3343 50.7997C85.3361 50.7408 85.3379 50.682 85.3379 50.6234ZM31.4576 49.9602V49.9602V49.9602V49.9603V49.9603V49.9603V49.9604V49.9604C31.4452 50.1705 31.433 50.3786 31.4483 50.5638C31.4483 50.673 31.4454 50.7776 31.4425 50.8788L31.4425 50.8789C31.4365 51.0945 31.4309 51.2948 31.4549 51.4931C31.552 52.3342 31.2518 52.683 30.4196 52.3408C30.126 52.2216 29.8059 52.1554 29.5741 52.29C28.7154 52.7889 28.1812 52.3408 27.7573 51.6918C27.2496 50.917 27.2982 50.0759 27.775 49.3077C28.2055 48.6167 28.881 48.385 29.6801 48.5549C29.7249 48.5645 29.771 48.5926 29.8157 48.6198C29.8743 48.6556 29.9305 48.6898 29.9781 48.6785C31.5558 48.2938 31.5059 49.1409 31.4576 49.9602ZM64.062 50.471C64.0554 51.6763 64.9384 52.5858 66.0929 52.5616C67.243 52.5373 68.073 51.6874 68.0818 50.5218C68.0907 49.3872 67.2253 48.513 66.0796 48.5042C64.9693 48.4931 64.0686 49.3695 64.062 50.471ZM5.57633 47.9457C5.85006 47.2724 6.38869 47.3099 6.82136 47.3518C6.90626 47.3518 6.98162 47.3522 7.05007 47.3525H7.05009H7.05012H7.05014H7.05016H7.05018H7.0502H7.05022H7.05023H7.05025H7.05026H7.05028C7.23267 47.3533 7.36587 47.3538 7.49907 47.3474C7.87876 47.3342 8.11717 47.5726 8.29818 47.8441C8.4096 48.0102 8.26678 48.1522 8.13661 48.2817L8.11717 48.3011C7.83461 48.5858 7.60503 48.5991 7.29156 48.3033C7.11938 48.1399 6.76176 48.0825 6.5962 48.332C6.43891 48.5679 6.62787 48.7324 6.79663 48.8792C6.82683 48.9055 6.85637 48.9312 6.88317 48.9567C7.02498 49.0914 7.17352 49.2199 7.322 49.3484L7.322 49.3484L7.32201 49.3484L7.32201 49.3484L7.32202 49.3484L7.32202 49.3484L7.32202 49.3484L7.32203 49.3484L7.32203 49.3484L7.32204 49.3484L7.32204 49.3484C7.5896 49.5799 7.85692 49.8112 8.08406 50.0781C8.69774 50.8022 8.63373 51.7183 7.99796 52.2238C7.30481 52.7735 6.15028 52.7028 5.62048 52.0362C5.59381 52.003 5.55879 51.9678 5.52177 51.9305C5.35654 51.764 5.15156 51.5576 5.47258 51.3231C5.71761 51.1443 6.01562 50.9898 6.33792 51.29C6.38985 51.339 6.439 51.408 6.48936 51.4787C6.66379 51.7236 6.85263 51.9887 7.22092 51.5108C7.60724 51.0119 7.30701 50.7139 6.95161 50.4114C6.86062 50.3337 6.76783 50.2575 6.67497 50.1812L6.67496 50.1812L6.67494 50.1811L6.67492 50.1811L6.67491 50.1811L6.67489 50.1811L6.67487 50.1811L6.67485 50.1811L6.67484 50.1811L6.67482 50.181L6.6748 50.181C6.42754 49.9779 6.17987 49.7743 5.96485 49.5417C5.55205 49.0958 5.31364 48.5925 5.57633 47.9457ZM74.2894 50.5042C74.3578 49.4225 73.5697 48.5571 72.4682 48.4997C71.371 48.4446 70.4019 49.3209 70.3291 50.4313C70.2673 51.3805 71.0841 52.4291 71.9339 52.4909C73.3379 52.5947 74.2033 51.864 74.2894 50.5042ZM33.6668 49.5417C33.5631 49.4644 33.3887 49.4357 33.2651 49.6234C33.3905 49.9183 33.651 50.0412 33.9124 50.1644C34.0696 50.2385 34.2271 50.3127 34.3556 50.4247C34.7772 50.7933 34.8169 51.2348 34.7154 51.7205C34.612 52.2122 34.2039 52.2989 33.8331 52.3777C33.7211 52.4014 33.6125 52.4245 33.5167 52.4578C33.1326 52.5902 32.5675 52.5682 32.2209 52.12C32.0907 51.9501 32.0796 51.7845 32.2275 51.6344C32.2461 51.6156 32.2647 51.596 32.2835 51.5763C32.4413 51.4104 32.612 51.2309 32.8743 51.3827C33.1392 51.5351 33.3887 51.6366 33.6933 51.4799C33.6873 51.0647 33.4118 50.9438 33.1408 50.8248C33.0155 50.7698 32.8912 50.7152 32.7949 50.6322C32.3158 50.2194 31.9251 49.7889 32.3004 49.1377C32.6955 48.4556 33.3225 48.3629 34.009 48.6344L34.0231 48.6399C34.3091 48.752 34.7018 48.9059 34.5476 49.3055C34.4041 49.6785 34.0752 49.8441 33.6668 49.5417ZM11.8721 49.6741C12.1635 49.4092 12.3688 49.5108 12.5653 49.6101C12.956 49.811 13.126 49.4821 13.2342 49.2591C13.3726 48.9763 13.1028 48.8393 12.9016 48.7372C12.8814 48.7269 12.8618 48.7169 12.8434 48.7072C12.2121 48.3805 11.466 48.3099 11.0664 48.9103C10.6558 49.5262 10.7927 50.2348 11.541 50.6918C11.6252 50.743 11.7215 50.7823 11.8188 50.822C12.0864 50.9312 12.3618 51.0436 12.4152 51.4159C12.1147 51.6879 11.8628 51.5473 11.5976 51.3994C11.5745 51.3864 11.5512 51.3734 11.5278 51.3607C11.2574 51.2128 11.1069 51.3941 10.9617 51.5692C10.9422 51.5928 10.9227 51.6163 10.903 51.6388C10.7684 51.7933 10.7463 51.9368 10.8986 52.1046C11.5189 52.7867 12.2077 52.5218 12.8677 52.2216C13.4704 51.9479 13.4836 51.449 13.2827 50.8772C13.1372 50.4681 12.8072 50.2801 12.4665 50.086C12.2593 49.968 12.0482 49.8477 11.8721 49.6741ZM15.3073 51.8226C15.2818 52.1968 15.2603 52.5133 14.7551 52.4357C14.4152 52.46 14.2938 52.3099 14.2651 51.992C14.2371 51.7006 14.2447 51.408 14.2522 51.1147C14.2698 50.4351 14.2874 49.7522 13.8633 49.0737C13.7446 48.8845 13.9281 48.4778 14.1232 48.0452L14.1232 48.0452C14.2401 47.7861 14.3612 47.5177 14.424 47.2812C14.4792 47.0781 14.9295 47.1024 15.1216 47.2415C15.337 47.3976 15.3193 47.6352 15.3014 47.8746C15.2834 48.1159 15.2653 48.3589 15.4858 48.5218C15.9781 48.8838 15.8456 49.098 15.5035 49.5483C15.1809 49.9705 15.2307 50.4898 15.2808 51.0119C15.3051 51.265 15.3295 51.5188 15.3114 51.7624L15.3073 51.8226ZM61.6779 48.9148C61.0178 48.7231 60.9704 48.2976 60.9232 47.874C60.9031 47.6927 60.8829 47.5117 60.8147 47.3496C60.6867 47.045 60.0929 47.1223 60.0752 47.2437C60.0321 47.5382 59.8825 47.8649 59.7433 48.1693C59.5547 48.5813 59.385 48.9523 59.5233 49.1465C59.9443 49.74 59.9164 50.3324 59.8889 50.9179C59.8741 51.2319 59.8594 51.5439 59.9141 51.8529C59.924 51.9109 59.9188 51.9769 59.9135 52.0432C59.8988 52.227 59.884 52.413 60.1922 52.4357C60.5013 52.4578 60.828 52.332 60.8788 52.0538C60.9371 51.7436 60.9242 51.4199 60.9111 51.093C60.8813 50.343 60.8507 49.5759 61.6779 48.9148ZM68.7455 50.4917C68.7448 50.3029 68.7441 50.1143 68.7441 49.9258C68.7433 49.6931 68.7442 49.4601 68.7451 49.2271V49.227V49.2268V49.2267V49.2266V49.2257C68.7467 48.7982 68.7483 48.3704 68.7397 47.9434C68.7331 47.5748 68.7551 47.3099 69.2518 47.3408C69.6426 47.3651 69.7485 47.5284 69.7441 47.8838C69.7309 49.2415 69.7286 50.6013 69.7309 51.9589C69.7309 52.343 69.5498 52.4401 69.1878 52.4534C68.7419 52.471 68.7331 52.2326 68.7397 51.9081C68.7491 51.4366 68.7473 50.9639 68.7455 50.4917ZM9.1547 50.2724C9.1547 50.3721 9.15137 50.4509 9.14863 50.5157C9.14398 50.6259 9.14104 50.6955 9.15911 50.758C9.217 50.961 9.17883 51.223 9.14192 51.4765C9.07888 51.9092 9.01949 52.3169 9.4483 52.3629C10.1904 52.4441 10.164 51.8796 10.1392 51.3493C10.129 51.1304 10.119 50.9174 10.1635 50.758C10.3379 50.1355 10.5101 49.2591 10.0024 48.6896C9.9499 48.6312 9.90151 48.5828 9.86009 48.5414C9.66805 48.3492 9.62561 48.3067 10.0178 48.1178C10.3401 47.9611 10.307 47.6278 10.1768 47.3496C10.0487 47.0803 9.79267 47.0538 9.51894 47.1134C9.14366 47.1951 9.03328 47.4865 9.13483 47.7757C9.30604 48.2594 9.23504 48.7405 9.16801 49.1947C9.11145 49.5779 9.05771 49.942 9.1547 50.2724ZM61.7154 50.407H61.7088L61.7091 50.3241C61.7095 50.2416 61.7099 50.1597 61.7066 50.0803C61.6823 48.6101 62.0598 48.2569 63.4395 48.5306C64.0046 48.6432 63.7397 49.1819 63.5631 49.2635C62.6723 49.6743 62.6422 50.4129 62.6123 51.1461C62.6051 51.3233 62.5979 51.5001 62.5785 51.6719L62.575 51.7034C62.5325 52.0871 62.4925 52.4481 62.0112 52.4181C61.6648 52.396 61.6894 52.148 61.7121 51.9181V51.9181V51.918C61.7189 51.8491 61.7256 51.7818 61.722 51.7227C61.7035 51.4168 61.7077 51.1098 61.7118 50.8025C61.7136 50.6707 61.7154 50.5389 61.7154 50.407ZM79.7419 50.4512C79.7419 50.587 79.7411 50.7228 79.7402 50.8586C79.7383 51.1643 79.7365 51.47 79.7441 51.7757C79.7452 51.8248 79.7428 51.8773 79.7404 51.9305C79.7279 52.2076 79.7145 52.5035 80.1812 52.4313C80.5543 52.3739 80.8147 52.1995 80.786 51.7139C80.7437 50.9785 80.7584 50.2376 80.7731 49.4995V49.4994L80.7772 49.2878C80.786 48.8772 80.7551 48.566 80.2143 48.5682C79.7334 48.5702 79.7362 48.8587 79.7392 49.1663C79.7394 49.1905 79.7397 49.2149 79.7397 49.2393C79.7441 49.641 79.7441 50.045 79.7419 50.4512ZM81.1329 47.0074C80.787 47.4988 80.4453 47.9842 79.605 47.9434C79.645 47.8586 79.6832 47.7734 79.7211 47.6892C80.0532 46.9498 80.3515 46.2857 81.4593 46.577C81.341 46.7116 81.2368 46.8598 81.1329 47.0074Z" fill="white"/>
<path d="M61.4041 21.928C60.3622 24.1267 59.8964 26.4026 59.0708 28.5483C58.7154 29.471 58.4461 30.4269 58.1348 31.3651C58.0024 31.7602 57.8302 32.1156 57.3313 32.1333C56.7706 32.1532 56.839 31.6631 56.7331 31.3563C55.6779 28.2724 54.6404 25.1841 53.5984 22.0958C53.5543 21.9677 53.5013 21.8441 53.3048 21.7315C53.3048 24.4887 53.2739 27.2437 53.3247 29.9986C53.3379 30.7205 53.903 31.151 54.6006 31.3496C54.8986 31.4335 55.1348 31.5461 55.0951 31.9435C55.0487 32.407 54.722 32.3121 54.4461 32.3143C53.4174 32.3209 52.3865 32.3276 51.3578 32.3143C51.062 32.3099 50.6713 32.4644 50.6094 31.928C50.5609 31.502 50.8567 31.4644 51.1282 31.3673C52.0532 31.0362 52.4086 30.3298 52.4086 29.396C52.4086 26.9699 52.3865 24.5417 52.4196 22.1156C52.4328 21.151 51.892 20.8463 51.0796 20.7426C50.8677 20.7161 50.6072 20.694 50.669 20.3717C50.7154 20.1267 50.9428 20.173 51.1128 20.1708C52.3997 20.1664 53.6867 20.1885 54.9737 20.1598C55.5189 20.1465 55.6271 20.4755 55.7618 20.8838C56.4041 22.8353 57.0664 24.7801 57.7264 26.7249C57.8655 27.1355 57.9229 27.5858 58.3114 28.0031C59.0907 25.6609 59.8766 23.3872 60.594 21.0891C60.817 20.3695 61.1503 20.1002 61.9141 20.151C63.0487 20.2238 64.1922 20.1642 65.3335 20.173C65.605 20.1752 65.9671 20.0737 65.9737 20.5461C65.9803 20.9744 65.6757 21.0207 65.371 20.9832C64.349 20.8529 64.1282 21.3717 64.1415 22.2812C64.1834 24.928 64.179 27.577 64.1481 30.2238C64.137 31.0914 64.3909 31.566 65.3401 31.4733C65.6072 31.4468 65.9693 31.3761 65.9759 31.8507C65.9825 32.3563 65.6249 32.3187 65.2894 32.3187C63.6713 32.3187 62.0532 32.3231 60.4351 32.3187C60.1194 32.3187 59.7287 32.4026 59.7353 31.875C59.7419 31.3231 60.1679 31.4622 60.4571 31.4733C61.1746 31.5042 61.5697 31.2657 61.5653 30.4777C61.5521 27.758 61.5653 25.0362 61.5609 22.3165C61.5609 22.2326 61.4947 22.1443 61.4041 21.928Z" fill="#161616"/>
<path d="M28.2055 20.173C28.9406 20.173 29.6757 20.1708 30.4108 20.173C30.6713 20.173 30.9317 20.1642 30.9604 20.5417C30.9869 20.8927 30.7132 21.0605 30.4969 21.0428C29.3158 20.9523 29.4152 21.7492 29.466 22.4887C29.5322 23.4622 29.0222 24.7624 29.7 25.3165C30.2783 25.7911 31.5256 25.4688 32.477 25.4622C34.115 25.4512 33.9406 25.7227 33.9649 24.0163C33.9715 23.502 33.945 22.9854 33.9693 22.4733C34.0068 21.6962 34.0068 20.9744 32.9273 20.9854C32.594 20.9898 32.4836 20.7845 32.5189 20.4777C32.5543 20.1708 32.7883 20.1752 33.0068 20.1752C34.552 20.1708 36.0951 20.1708 37.6404 20.1708C37.8766 20.1708 38.0774 20.2238 38.0951 20.5174C38.115 20.8463 37.9472 21.0031 37.6359 20.981C36.6183 20.9148 36.5388 21.5549 36.5454 22.3364C36.5653 24.9103 36.5609 27.4843 36.552 30.0582C36.5498 30.8574 36.594 31.5814 37.6977 31.4733C37.9604 31.4468 38.0973 31.5726 38.0973 31.8574C38.0973 32.1752 37.9759 32.3231 37.6448 32.3209C36.0995 32.3143 34.5565 32.3209 33.0112 32.3121C32.8501 32.3121 32.5587 32.3563 32.6072 32.1068C32.6536 31.864 32.6514 31.4446 33.0598 31.4755C34.0686 31.5571 33.956 30.864 33.9582 30.2415C33.9604 29.2481 33.9362 28.2547 33.9715 27.2635C33.9913 26.6874 33.7883 26.4821 33.2099 26.5064C32.0002 26.5571 30.4505 26.1156 29.6779 26.7073C28.9428 27.2724 29.5366 28.9126 29.4527 30.0759C29.3931 30.8861 29.4328 31.5903 30.5521 31.4733C30.7993 31.4468 30.9604 31.566 30.9626 31.8596C30.9649 32.1907 30.8059 32.3187 30.4924 32.3187C28.9119 32.3143 27.3313 32.3099 25.7485 32.3121C25.4152 32.3121 25.296 32.1532 25.2982 31.8397C25.3004 31.5439 25.477 31.4468 25.7198 31.4711C26.7309 31.5726 26.8236 30.981 26.8125 30.1708C26.7794 27.4865 26.7838 24.8022 26.8125 22.1179C26.8192 21.4159 26.6668 20.9611 25.8699 20.9766C25.5498 20.9832 25.2629 20.9324 25.3092 20.5064C25.36 20.0472 25.7287 20.1797 25.9913 20.173C26.7331 20.162 27.4704 20.173 28.2055 20.173Z" fill="#161616"/>
<path d="M39.6426 30.056C39.6426 29.5417 39.6337 29.0273 39.647 28.513C39.6514 28.2746 39.5653 27.9854 39.9516 27.917C40.3092 27.8529 40.4902 27.9942 40.6028 28.3276C40.8589 29.0891 41.1392 29.8618 41.7618 30.4026C43.1282 31.5903 44.4792 32.4953 46.3026 31.407C47.0487 30.9633 47.5807 30.4159 47.5498 29.4953C47.5167 28.5439 46.892 28.0273 46.0774 27.7823C44.9913 27.4534 43.8589 27.279 42.775 26.9479C40.2231 26.1686 39.2342 24.3011 40.1437 22.0891C40.9582 20.109 43.7816 19.2415 46.0289 20.3033C46.7088 20.6256 47.3335 21.3253 47.9472 20.1465C48.1282 19.7978 48.6205 19.8838 48.6271 20.4755C48.6403 21.5417 48.6558 22.6057 48.6624 23.6719C48.6646 23.917 48.7132 24.2084 48.3158 24.2194C48.0311 24.226 47.8412 24.151 47.7397 23.8441C47.5035 23.1421 47.1415 22.5042 46.6514 21.9435C45.647 20.7978 44.2121 20.4181 42.8721 20.8552C42.0245 21.1311 41.6293 21.7117 41.5741 22.5329C41.5189 23.3761 42.0112 23.9037 42.7485 24.215C43.8721 24.6896 45.0885 24.8154 46.254 25.1333C48.3136 25.6962 49.2827 26.7691 49.3269 28.4909C49.3909 31.0715 46.8942 32.9699 44.0443 32.4953C43.2805 32.3673 42.5211 32.1752 41.903 31.683C41.4064 31.2856 41.0774 31.3717 40.7706 31.8905C40.5763 32.215 40.307 32.5152 39.881 32.354C39.4593 32.1951 39.6735 31.7845 39.6492 31.4887C39.6116 31.0141 39.6381 30.5351 39.6381 30.056C39.6403 30.056 39.6403 30.056 39.6426 30.056Z" fill="#161616"/>
<path d="M52.9781 49.6432C52.7242 50.3938 52.4417 51.0649 52.2805 51.7624C52.1657 52.2569 51.828 52.3607 51.4549 52.4291C50.9648 52.5196 50.9847 52.0715 50.881 51.7867C50.6227 51.0737 50.3821 50.3541 50.0686 49.4446C49.8788 50.4159 49.6845 51.1642 49.6006 51.9236C49.541 52.4733 49.232 52.4688 48.8434 52.4291C48.3026 52.3739 48.5896 52.0053 48.6249 51.7735C48.8346 50.471 49.0752 49.1752 49.2871 47.8728C49.3445 47.5262 49.3799 47.2393 49.8456 47.2238C50.3114 47.2084 50.4902 47.4534 50.6161 47.8397C50.8898 48.6984 51.1834 49.5505 51.5631 50.6874C51.945 49.5549 52.2452 48.7161 52.5035 47.8662C52.6403 47.4137 52.8699 47.1775 53.3622 47.2371C53.8545 47.2967 53.7286 47.6565 53.7838 47.9744C53.9891 49.1885 54.2518 50.396 54.4571 51.6101C54.5057 51.8927 54.8876 52.3474 54.19 52.4335C53.6161 52.5042 53.5675 52.1465 53.4659 51.7183C53.3092 51.0605 53.4086 50.3298 52.9781 49.6432Z" fill="#161616"/>
<path fill-rule="evenodd" clip-rule="evenodd" d="M76.242 52.7816C75.8271 52.6455 75.4193 52.5117 75.0664 52.7558C75.488 53.7359 76.2982 54.1532 77.4328 53.9258C78.3754 53.7359 78.9141 53.1686 78.9185 52.1686C78.9199 51.9529 78.9248 51.737 78.9298 51.5212C78.9408 51.039 78.9519 50.557 78.9229 50.0781C78.914 49.9341 78.9272 49.7671 78.9404 49.598C78.9933 48.9246 79.0489 48.2168 77.7309 48.7867C77.6565 48.8178 77.5489 48.7619 77.4361 48.7033C77.3648 48.6662 77.2915 48.6281 77.2231 48.6101C76.115 48.3121 75.1591 48.939 74.9781 50.0759C74.7132 51.7426 75.7728 52.5969 77.8898 52.343C77.4139 53.1662 76.8211 52.9717 76.242 52.7816ZM75.9958 50.4556C76.0068 49.8353 76.3777 49.5461 76.9273 49.4688C77.6006 49.5417 77.9781 49.8883 77.9626 50.5417C77.9516 51.1421 77.5763 51.524 76.9935 51.5174C76.3666 51.5086 75.9825 51.1245 75.9958 50.4556Z" fill="#161616"/>
<path d="M20.8479 50.46C20.8479 50.1289 20.8743 49.7955 20.8434 49.4666C20.7662 48.6587 21.1061 48.7117 21.8346 48.5947C22.9362 48.4181 23.9649 49.1201 25.0752 48.5748C25.786 48.226 26.5079 48.6786 26.6668 49.4755C26.8214 50.2569 26.7573 51.0825 26.7684 51.8883C26.7728 52.268 26.4064 52.3739 26.1679 52.4004C25.8258 52.4379 25.7022 52.1311 25.7 51.8044C25.6977 51.2525 25.6955 50.7006 25.6889 50.1488C25.6845 49.8132 25.541 49.5836 25.1878 49.5329C24.8589 49.4865 24.6117 49.6101 24.4748 49.917C24.2651 50.385 24.1679 50.864 24.1392 51.3872C24.1216 51.7293 24.5432 52.4004 23.7772 52.4159C22.9384 52.4313 23.4108 51.7161 23.3225 51.332C23.243 50.981 23.296 50.5991 23.2739 50.2326C23.2474 49.8309 23.1128 49.4931 22.6271 49.5196C22.1878 49.5439 21.9671 49.8375 21.9406 50.2437C21.9075 50.7933 21.903 51.3474 21.9229 51.8971C21.9384 52.3563 21.7066 52.4379 21.3114 52.4468C20.8832 52.4556 20.8368 52.2238 20.8434 51.8927C20.8567 51.4159 20.8479 50.939 20.8479 50.46Z" fill="#161616"/>
<path fill-rule="evenodd" clip-rule="evenodd" d="M40.2716 48.5028C40.2695 48.5948 40.2673 48.6872 40.2673 48.7801C40.226 48.7758 40.1894 48.774 40.157 48.7725C40.0907 48.7693 40.0417 48.767 40.0046 48.7448C39.1326 48.29 38.3445 48.4269 37.7485 49.1841C37.1481 49.9457 37.1525 50.8309 37.6094 51.6543C38.0863 52.5152 38.8986 52.6984 39.7794 52.396C40.0115 52.3168 40.1682 52.3544 40.3522 52.3985C40.3888 52.4073 40.4264 52.4163 40.4659 52.4247C41.0443 52.5505 41.3622 52.3187 41.3534 51.6763C41.3357 50.4335 41.3401 49.1885 41.3512 47.9457C41.3534 47.5571 41.2739 47.343 40.8125 47.3386C40.3732 47.3342 40.2231 47.4843 40.2629 47.9059C40.281 48.1028 40.2763 48.3018 40.2716 48.5028ZM39.2695 49.4909C39.9494 49.4644 40.2629 49.8552 40.2982 50.4997C40.2739 51.1488 39.9958 51.5726 39.3092 51.5748C38.6116 51.5792 38.318 51.1068 38.3269 50.5042C38.3335 49.9457 38.6448 49.5152 39.2695 49.4909Z" fill="#161616"/>
<path fill-rule="evenodd" clip-rule="evenodd" d="M18.6602 51.513C18.0818 51.7845 17.5476 51.7095 17.19 50.8596C17.4458 50.8596 17.691 50.856 17.9286 50.8526C18.4642 50.8448 18.9617 50.8376 19.4571 50.8728C20.1635 50.9214 20.2607 50.5969 20.1172 50.0207C19.839 48.9037 18.711 48.268 17.5454 48.588C16.4328 48.8927 15.8611 50.0097 16.2055 51.2084C16.5057 52.2547 17.6999 52.8154 18.892 52.4468L18.8993 52.4445C19.3071 52.3189 19.869 52.1458 19.7176 51.6499C19.6139 51.3055 19.0929 51.3077 18.6602 51.513ZM17.2607 49.9258H18.9803C18.1856 49.1929 18.1437 49.1929 17.2607 49.9258Z" fill="#161616"/>
<path fill-rule="evenodd" clip-rule="evenodd" d="M57.6646 51.4865C57.1017 51.7735 56.541 51.7337 56.0399 50.8618C56.283 50.8618 56.5094 50.8643 56.7243 50.8667C57.2078 50.872 57.6327 50.8767 58.0576 50.8507C58.147 50.8454 58.2464 50.8593 58.3471 50.8735C58.6195 50.9117 58.902 50.9513 59.0245 50.6145C59.1635 50.2348 59.0333 49.8242 58.8169 49.4622C58.2871 48.5726 57.0686 48.2238 56.1172 48.6984C55.1679 49.1708 54.7618 50.449 55.2386 51.449C55.6977 52.4114 56.8964 52.8397 57.9715 52.4026C57.9826 52.3981 57.994 52.3935 58.0056 52.3888C58.336 52.2549 58.8039 52.0654 58.6845 51.7006C58.5675 51.3518 58.1216 51.2547 57.6646 51.4865ZM58.009 49.9677C57.0311 49.1708 56.839 49.1885 56.3158 49.9677H58.009Z" fill="#161616"/>
<path fill-rule="evenodd" clip-rule="evenodd" d="M44.6293 51.4909C44.0642 51.7845 43.5035 51.7161 43.0907 50.9699C43.1499 50.9507 43.1968 50.9334 43.2358 50.9189C43.3089 50.8919 43.3545 50.875 43.4019 50.875C43.7963 50.8671 44.1896 50.8649 44.5833 50.8626C44.7406 50.8617 44.8979 50.8608 45.0554 50.8596C46.1304 50.8529 46.3335 50.5086 45.8302 49.5439C45.3445 48.6101 44.1856 48.2326 43.1746 48.6786C42.2033 49.109 41.7044 50.4159 42.1459 51.3651C42.6094 52.3585 43.8876 52.8441 44.9604 52.4004C44.9794 52.3926 44.9989 52.3846 45.019 52.3765C45.3448 52.2438 45.7958 52.0603 45.6668 51.6984C45.552 51.3783 45.0929 51.2503 44.6293 51.4909ZM43.3596 49.9716C43.2575 49.9636 43.1521 49.9553 43.0421 49.9479C43.7684 49.2657 44.2938 49.215 44.9494 49.8861C44.3865 50.0525 43.925 50.0162 43.3596 49.9716Z" fill="#161616"/>
<path fill-rule="evenodd" clip-rule="evenodd" d="M85.3338 50.8005C85.3359 50.7414 85.3379 50.6822 85.3379 50.6234H85.296C85.296 50.4336 85.3115 50.2376 85.327 50.0415C85.3622 49.5966 85.3974 49.1511 85.2518 48.7757C85.1197 48.4333 84.8672 48.5342 84.5927 48.6439C84.3627 48.7358 84.1173 48.8339 83.9141 48.683C83.8633 48.6458 83.7986 48.626 83.7354 48.6066C83.7273 48.6041 83.7191 48.6016 83.711 48.5991C82.9097 48.3408 82.2408 48.577 81.7772 49.2415C81.2231 50.0318 81.1812 50.9148 81.7331 51.7117C82.1525 52.3209 82.6933 52.8507 83.5476 52.2856C83.6779 52.1995 83.9317 52.2061 84.0841 52.2702C85.2783 52.7757 85.4615 52.1598 85.3401 51.173C85.3251 51.0502 85.3295 50.9253 85.3338 50.8005ZM83.3379 49.4931C84.0046 49.449 84.3335 49.8574 84.4152 50.5108C84.3534 51.109 84.115 51.566 83.4174 51.5682C82.7971 51.5748 82.4637 51.2304 82.4218 50.6256C82.3777 49.9788 82.6735 49.5373 83.3379 49.4931Z" fill="#161616"/>
<path fill-rule="evenodd" clip-rule="evenodd" d="M31.4422 50.8885C31.4452 50.7845 31.4483 50.6767 31.4483 50.5638C31.433 50.3787 31.4452 50.1705 31.4576 49.9605C31.5058 49.1406 31.5557 48.292 29.9759 48.6786C29.9286 48.6897 29.8737 48.6561 29.8157 48.6206C29.7708 48.5932 29.7241 48.5646 29.6779 48.5549C28.8788 48.385 28.2011 48.6189 27.7728 49.3077C27.296 50.0759 27.2474 50.917 27.7551 51.6918C28.179 52.3408 28.7132 52.7911 29.5719 52.29C29.8015 52.1554 30.1238 52.2194 30.4174 52.3408C31.2496 52.6808 31.552 52.3342 31.4527 51.4931C31.4305 51.2988 31.4361 51.1015 31.4422 50.8885ZM29.3975 49.4755C30.0421 49.4556 30.4108 49.8287 30.413 50.5064C30.4064 51.1488 30.1415 51.5638 29.4439 51.5704C28.8015 51.577 28.4969 51.1752 28.4682 50.6057C28.4373 49.992 28.722 49.4953 29.3975 49.4755Z" fill="#161616"/>
<path fill-rule="evenodd" clip-rule="evenodd" d="M66.0818 48.5042C64.9671 48.4931 64.0686 49.3695 64.062 50.471C64.0554 51.6763 64.9406 52.5836 66.0951 52.5616C67.2452 52.5373 68.0752 51.6852 68.0841 50.5218C68.0907 49.3872 67.2253 48.5152 66.0818 48.5042ZM65.073 50.5461C65.0664 49.9501 65.3953 49.5064 66.0509 49.4843C66.7706 49.5152 67.0664 49.939 67.0443 50.566C67.0245 51.2017 66.669 51.5903 65.9958 51.5704C65.349 51.5527 65.0796 51.0737 65.073 50.5461Z" fill="#161616"/>
<path d="M6.82136 47.3518C7.13261 47.3518 7.31584 47.3563 7.49906 47.3496C7.87875 47.3364 8.11495 47.5748 8.29818 47.8463C8.41517 48.0207 8.25182 48.1686 8.11716 48.3033C7.83239 48.588 7.60281 48.6013 7.29155 48.3055C7.11937 48.1421 6.76175 48.0847 6.59619 48.3342C6.41076 48.6123 6.70657 48.7911 6.88317 48.9589C7.28052 49.3364 7.73306 49.6653 8.08405 50.0803C8.69994 50.8022 8.63593 51.7183 7.99796 52.226C7.3048 52.7779 6.15027 52.705 5.62047 52.0384C5.47478 51.8552 5.07743 51.6101 5.47257 51.3254C5.7176 51.1465 6.01562 50.9942 6.33791 51.2922C6.57191 51.5086 6.7463 52.1267 7.22091 51.513C7.60723 51.0141 7.30701 50.7161 6.9516 50.4137C6.61827 50.1289 6.26065 49.864 5.96484 49.5439C5.55204 49.0958 5.31142 48.5925 5.57632 47.9479C5.85226 47.2724 6.38869 47.3099 6.82136 47.3518Z" fill="#161616"/>
<path fill-rule="evenodd" clip-rule="evenodd" d="M71.9362 52.4909C73.3379 52.5947 74.2033 51.864 74.2894 50.5042C74.3578 49.4247 73.5719 48.5571 72.4704 48.4997C71.3754 48.4424 70.4041 49.3209 70.3313 50.4313C70.2673 51.3805 71.0841 52.4291 71.9362 52.4909ZM73.3512 50.4666C73.3887 51.1046 73.0664 51.4953 72.4306 51.5858C71.7419 51.566 71.4019 51.1929 71.3865 50.5549C71.3688 49.8993 71.7309 49.513 72.3821 49.4997C72.998 49.4887 73.3181 49.8839 73.3512 50.4666Z" fill="#161616"/>
<path d="M33.2651 49.6234C33.466 50.0958 34.0134 50.1245 34.3556 50.4247C34.775 50.7911 34.8169 51.2348 34.7154 51.7205C34.5807 52.3607 33.9295 52.3143 33.5167 52.4578C33.1326 52.5903 32.5675 52.5682 32.2209 52.1201C32.0885 51.9501 32.0796 51.7845 32.2275 51.6344C32.4019 51.4556 32.5807 51.2128 32.8743 51.3827C33.1392 51.5351 33.3887 51.6366 33.6933 51.4799C33.6845 50.8728 33.0995 50.8949 32.7949 50.6322C32.3158 50.2216 31.9229 49.7911 32.3004 49.1377C32.6933 48.4556 33.3225 48.3629 34.009 48.6344C34.296 48.747 34.7044 48.8993 34.5476 49.3055C34.4041 49.6786 34.0752 49.8441 33.6668 49.5417C33.5631 49.4644 33.3887 49.4357 33.2651 49.6234Z" fill="#161616"/>
<path d="M11.8721 49.6741C12.3379 50.1333 13.0487 50.2194 13.2827 50.8772C13.4836 51.449 13.4704 51.9479 12.8677 52.2216C12.2099 52.5196 11.5189 52.7867 10.8986 52.1046C10.7463 51.9368 10.7684 51.7933 10.903 51.6388C11.0686 51.449 11.2209 51.1929 11.5278 51.3607C11.8169 51.5196 12.0863 51.7117 12.4152 51.4159C12.3423 50.9081 11.8545 50.8839 11.541 50.6918C10.7927 50.2326 10.6558 49.524 11.0664 48.9103C11.4659 48.3099 12.2143 48.3783 12.8434 48.7073C13.0443 48.811 13.3843 48.9457 13.2342 49.2591C13.126 49.4821 12.956 49.811 12.5653 49.6101C12.3688 49.5108 12.1635 49.4092 11.8721 49.6741Z" fill="#161616"/>
<path d="M14.7551 52.4357C14.4152 52.46 14.2938 52.3121 14.2629 51.992C14.1701 51.0251 14.4682 50.045 13.8611 49.0737C13.6712 48.7713 14.2562 47.9125 14.4218 47.2812C14.4748 47.0781 14.9273 47.1024 15.1194 47.2415C15.552 47.5549 15.0421 48.1995 15.4836 48.5218C15.9759 48.8839 15.8456 49.098 15.5013 49.5483C15.0222 50.1774 15.3644 51.0163 15.3092 51.7624C15.2827 52.162 15.2871 52.5174 14.7551 52.4357Z" fill="#161616"/>
<path d="M61.6779 48.9148C60.4902 49.864 61.0708 51.0318 60.881 52.0538C60.8302 52.332 60.5035 52.4556 60.1944 52.4357C59.7728 52.407 59.9538 52.0715 59.9163 51.8529C59.7596 50.9677 60.1724 50.0582 59.5256 49.1465C59.2849 48.8088 59.9759 47.9368 60.0774 47.2437C60.0951 47.1223 60.6889 47.045 60.817 47.3496C61.0421 47.8905 60.7353 48.641 61.6779 48.9148Z" fill="#161616"/>
<path d="M68.7441 49.9258C68.7441 49.2657 68.7551 48.6035 68.7397 47.9435C68.7309 47.5748 68.7551 47.3121 69.2518 47.3408C69.6448 47.3651 69.7485 47.5284 69.7441 47.8838C69.7309 49.2415 69.7286 50.6013 69.7309 51.9589C69.7309 52.343 69.552 52.4401 69.1878 52.4534C68.7419 52.471 68.7331 52.2326 68.7397 51.9081C68.7529 51.2481 68.7441 50.588 68.7441 49.9258Z" fill="#161616"/>
<path d="M9.15469 50.2724C8.94277 49.5505 9.4505 48.6675 9.13262 47.7757C9.03107 47.4865 9.14145 47.1951 9.51673 47.1134C9.79046 47.0538 10.0465 47.0803 10.1746 47.3496C10.3048 47.6278 10.3401 47.9611 10.0156 48.1178C9.5388 48.3474 9.70436 48.3607 10.0002 48.6896C10.5101 49.2591 10.3357 50.1355 10.1613 50.758C10.009 51.3033 10.4924 52.4777 9.44609 52.3629C8.76617 52.2878 9.31363 51.3077 9.1569 50.758C9.13041 50.6565 9.15469 50.5395 9.15469 50.2724Z" fill="#161616"/>
<path d="M61.7088 50.407C61.7088 50.2967 61.711 50.1885 61.7088 50.0781C61.6845 48.6079 62.062 48.2547 63.4417 48.5284C64.009 48.641 63.7419 49.1797 63.5653 49.2613C62.4593 49.7735 62.6779 50.7867 62.5807 51.6697C62.5366 52.0649 62.5079 52.4468 62.0134 52.4159C61.5609 52.3872 61.7397 51.9766 61.7242 51.7205C61.6977 51.2834 61.7176 50.8441 61.7176 50.4048C61.7132 50.407 61.711 50.407 61.7088 50.407Z" fill="#161616"/>
<path d="M79.7441 50.4512C79.7441 50.0472 79.7441 49.641 79.7441 49.2371C79.7441 48.9037 79.7 48.5682 80.2187 48.566C80.7596 48.5638 80.7883 48.875 80.7816 49.2856C80.7662 50.0936 80.7441 50.9059 80.7905 51.7117C80.8192 52.1973 80.5587 52.3717 80.1856 52.4291C79.6315 52.5152 79.7573 52.0781 79.7485 51.7735C79.7353 51.3342 79.7419 50.8927 79.7441 50.4512Z" fill="#161616"/>
<path d="M79.605 47.9435C79.9958 47.1112 80.2253 46.2525 81.4593 46.577C80.9472 47.1598 80.6977 47.9964 79.605 47.9435Z" fill="#161616"/>
</svg>
