<svg width="92" height="80" viewBox="0 0 92 80" fill="none" xmlns="http://www.w3.org/2000/svg"><path fill-rule="evenodd" clip-rule="evenodd" d="m79.442 57.626 2.148-.003 2.176-.003c1.959-.004 3.918-.009 5.879.019.735.009 1.022-.15 1.013-.96a696.81 696.81 0 0 1 0-12.687c.007-.803-.27-.978-1.011-.97-1.52.019-3.04.018-4.56.017-1.68-.002-3.359-.003-5.038.021-.782.014-.863-.24-.678-.89.198-.69.355-1.395.51-2.097.138-.62.276-1.24.442-1.847.822-3.022 1.157-6.11 1.492-9.195.052-.475.103-.95.157-1.425.48-4.265.436-8.555.393-12.846l-.003-.26c-.026-2.722-1.101-4.806-3.132-6.5-3.1-2.582-6.881-3.681-10.638-4.759C63.056 1.656 57.339 1.17 51.632.684l-.711-.06c-6.793-.581-13.537.085-20.256.984a63.795 63.795 0 0 0-9.314 1.971c-3.276.947-6.417 2.036-9.172 4.062-2.395 1.764-3.748 4.073-3.587 7.155.05.98.036 1.962.022 2.945-.006.379-.012.758-.013 1.136-.042 7.894.766 15.682 2.973 23.285.25.857-.095.892-.766.887a485.58 485.58 0 0 0-4.003-.006 367.21 367.21 0 0 1-5.485-.022c-.81-.011-1.06.194-1.05 1.037.046 4.117.05 8.239-.003 12.356-.01.938.175 1.242 1.186 1.231 2.97-.032 5.94-.03 8.91-.03 2.289.002 4.578.003 6.867-.012.748-.004 1.2.219 1.605.853 5.45 8.53 12.81 14.962 21.713 19.686 3.25 1.724 6.534 1.572 9.777.031 2.143-1.018 4.13-2.327 6.092-3.658 6.36-4.318 11.64-9.7 15.786-16.18.34-.533.709-.732 1.334-.725 1.968.023 3.937.02 5.905.016Zm-25.823-1.1H24.175c-7.097 0-14.194 0-21.29-.002-1.452 0-1.452-.004-1.452-1.472l.003-2.664c.005-2.421.01-4.842-.02-7.264-.01-.783.231-.966.99-.966 28.683.02 57.365.02 86.047-.003.87 0 1.101.228 1.088 1.093-.05 3.347-.066 6.693.007 10.038.024 1.035-.296 1.262-1.279 1.26a16269.69 16269.69 0 0 0-34.65-.02Z" fill="#F7ED17"/><path d="M45.46 43.04c9.416 0 18.832-.008 28.249.016.77.002 1.163-.165 1.393-.976a84.4 84.4 0 0 0 2.042-9.218c1.013-6.124.995-12.298.964-18.477-.006-1.263-.507-2.258-1.457-3.07a11.065 11.065 0 0 0-2.287-1.524c-3.45-1.71-7.152-2.543-10.907-3.285-5.662-1.117-11.38-1.766-17.132-1.81-8.142-.064-16.201.866-24.086 2.98-2.908.78-5.782 1.709-8.1 3.788-.87.78-1.28 1.724-1.287 2.916-.015 2.61-.08 5.217.01 7.828.224 6.696.981 13.303 2.93 19.744.257.846.621 1.117 1.526 1.113 9.382-.042 18.762-.027 28.141-.024ZM23.39 57.648c.177.302.257.465.36.609 5.01 6.971 11.431 12.287 19.016 16.243.409.212.806.596 1.22.613 1.462.062 2.928.06 4.292-.66 7.426-3.916 13.75-9.125 18.72-15.925.177-.24.52-.443.351-.88H23.391Z" fill="#fff"/><path fill-rule="evenodd" clip-rule="evenodd" d="M2.883 56.526h50.37c11.673-.002 23.344-.003 35.014.022.983.002 1.3-.225 1.278-1.26a271.737 271.737 0 0 1-.006-10.038c.013-.865-.216-1.092-1.088-1.092a56091.6 56091.6 0 0 1-86.047.002c-.76 0-1 .183-.991.967.03 2.42.026 4.842.021 7.263l-.003 2.664c0 1.468 0 1.472 1.452 1.472Zm50.484-5.484c-.05-.464-.102-.941-.389-1.399-.075.22-.152.435-.227.644-.182.504-.355.985-.466 1.482-.115.495-.453.598-.826.667-.39.07-.457-.2-.52-.455-.017-.066-.032-.13-.054-.188-.183-.501-.355-1.006-.55-1.578l-.262-.764c-.06.306-.12.59-.177.858-.124.585-.233 1.1-.291 1.621-.062.552-.37.545-.757.506-.424-.045-.342-.279-.268-.49.02-.058.041-.115.05-.166.108-.674.225-1.347.342-2.02.109-.627.217-1.253.32-1.88l.004-.027c.055-.334.1-.608.554-.623.466-.015.647.23.77.616.184.576.377 1.149.599 1.809l.003.009.346 1.03c.115-.344.224-.66.325-.958v-.001c.235-.684.435-1.27.615-1.862.137-.453.366-.689.859-.63.384.045.394.274.404.523.002.072.005.144.017.215.102.593.216 1.183.33 1.774.119.62.238 1.24.343 1.862.01.063.038.135.067.21.098.258.208.546-.334.613-.541.07-.615-.25-.708-.648l-.016-.067a5.313 5.313 0 0 1-.103-.683Zm21.7 1.714c.423.98 1.231 1.397 2.366 1.168.942-.19 1.481-.758 1.485-1.758.002-.215.007-.431.012-.647.01-.481.022-.963-.007-1.443a3.615 3.615 0 0 1 .017-.48c.053-.674.109-1.381-1.21-.811-.074.032-.184-.025-.298-.084a1.132 1.132 0 0 0-.209-.093c-1.108-.298-2.064.329-2.245 1.466-.267 1.664.795 2.52 2.912 2.267-.476.825-1.07.63-1.649.44-.414-.136-.822-.27-1.175-.025ZM20.848 50.89v-.001l-.001-.43c0-.108.003-.215.005-.323.006-.224.012-.447-.007-.668-.071-.719.192-.756.763-.838l.228-.034c.456-.073.9.004 1.341.081.626.11 1.249.219 1.9-.101.71-.349 1.434.104 1.591.9.114.584.108 1.192.103 1.797-.002.206-.004.412-.001.617.004.38-.365.485-.6.512-.343.037-.467-.27-.469-.596v-.001a207.46 207.46 0 0 0-.01-1.655c-.005-.333-.149-.565-.502-.616-.327-.046-.574.075-.713.384a4.03 4.03 0 0 0-.335 1.47c-.006.09.02.202.045.319.074.33.156.699-.408.71-.59.013-.533-.338-.476-.681.024-.145.047-.289.022-.403-.05-.222-.047-.455-.044-.688a5.16 5.16 0 0 0-.005-.411c-.026-.402-.161-.74-.647-.713-.439.022-.662.316-.686.724-.033.55-.038 1.104-.018 1.653.016.46-.216.541-.611.55-.429.009-.475-.223-.468-.554.006-.335.004-.67.003-1.004Zm19.418-2.11a1.104 1.104 0 0 0-.118-.01.366.366 0 0 1-.147-.026c-.87-.455-1.658-.318-2.256.44-.6.76-.596 1.646-.139 2.47.477.858 1.29 1.043 2.17.741.236-.08.394-.042.582.004a5.7 5.7 0 0 0 .105.025c.576.123.896-.108.887-.749a140.54 140.54 0 0 1-.002-3.73c.004-.389-.077-.603-.539-.607-.439-.005-.587.145-.55.567.02.2.015.403.01.607 0 .09-.003.178-.003.267Zm-22.325 2.071c-.242.004-.492.008-.752.008.355.85.892.925 1.47.65.433-.202.952-.207 1.058.138.149.495-.411.668-.817.794l-.009.003c-1.192.368-2.386-.193-2.686-1.239-.343-1.196.23-2.316 1.34-2.62 1.165-.32 2.293.313 2.571 1.433.144.576.049.9-.66.852a18 18 0 0 0-1.515-.019Zm38.782.015c.485.005.91.01 1.334-.016.089-.006.188.008.29.023.272.038.554.077.677-.26.139-.38.006-.79-.208-1.152-.528-.89-1.748-1.238-2.7-.764-.95.473-1.357 1.751-.878 2.751.459.962 1.657 1.39 2.733.954l.03-.012c.332-.134.802-.324.682-.69-.114-.351-.562-.446-1.02-.215-.562.288-1.123.248-1.624-.624.243 0 .47.002.684.005Zm-13.481.05-.152.053c.41.746.971.815 1.536.519.466-.24.923-.113 1.038.207.129.362-.322.546-.648.678l-.059.024c-1.073.442-2.35-.042-2.814-1.035-.442-.95.06-2.258 1.028-2.687 1.01-.446 2.168-.068 2.656.866.503.964.3 1.309-.775 1.315l-.412.003c-.414.003-.827.006-1.241.013a.514.514 0 0 0-.157.043Zm42.095-.294h-.042c0-.19.015-.387.031-.583.035-.445.07-.89-.075-1.264-.132-.341-.384-.24-.659-.132-.23.092-.476.19-.679.039a.576.576 0 0 0-.179-.076l-.024-.008c-.801-.256-1.47-.02-1.934.643-.552.79-.594 1.67-.044 2.47.422.609.96 1.139 1.815.574.128-.087.382-.08.536-.016 1.194.506 1.375-.11 1.256-1.097a2.727 2.727 0 0 1-.006-.373c.002-.06.004-.118.004-.177Zm-53.88-.663a4.41 4.41 0 0 0-.01.604c0 .109-.003.214-.006.315-.006.215-.011.416.013.614.097.841-.203 1.19-1.035.848-.294-.12-.614-.186-.846-.051-.859.499-1.393.05-1.817-.598-.507-.775-.459-1.616.018-2.384.43-.691 1.106-.923 1.905-.753.045.01.091.038.136.065.058.036.114.07.162.059 1.578-.385 1.528.462 1.48 1.281Zm32.604.511c-.007 1.205.876 2.115 2.03 2.09 1.151-.024 1.981-.874 1.99-2.04.009-1.134-.857-2.008-2.002-2.017a1.982 1.982 0 0 0-2.018 1.967ZM5.576 47.946c.274-.674.813-.636 1.245-.594h.23c.182.001.315.002.448-.005.38-.013.618.226.8.497.11.166-.032.308-.162.438l-.02.02c-.282.284-.512.297-.825.001-.173-.163-.53-.22-.696.029-.157.236.032.4.2.547.03.027.06.052.087.078.142.134.29.263.439.391.268.232.535.463.762.73.614.724.55 1.64-.086 2.146-.693.55-1.848.479-2.378-.188a1.292 1.292 0 0 0-.098-.105c-.165-.167-.37-.373-.05-.608.246-.179.544-.333.866-.033.052.049.101.118.151.189.175.245.364.51.732.032.386-.5.086-.797-.27-1.1-.09-.077-.183-.154-.276-.23a7.003 7.003 0 0 1-.71-.64c-.413-.445-.651-.948-.389-1.595Zm68.713 2.558c.069-1.081-.72-1.947-1.82-2.004-1.098-.055-2.067.82-2.14 1.931-.062.95.755 1.998 1.605 2.06 1.404.104 2.27-.627 2.355-1.987Zm-40.622-.962c-.104-.078-.278-.106-.402.081.126.295.386.418.647.541.158.075.315.149.444.26.421.37.46.81.36 1.297-.104.491-.512.578-.883.657a2.6 2.6 0 0 0-.316.08c-.384.132-.95.11-1.296-.338-.13-.17-.141-.335.007-.486l.055-.058c.158-.166.329-.345.591-.193.265.152.515.254.82.097-.007-.415-.282-.536-.553-.655a1.361 1.361 0 0 1-.346-.193c-.48-.413-.87-.843-.495-1.494.396-.682 1.023-.775 1.709-.504l.014.006c.286.112.679.266.525.666-.144.373-.473.538-.881.236Zm-21.795.132c.292-.265.497-.163.693-.064.391.201.561-.128.67-.35.138-.284-.132-.42-.333-.523l-.059-.03c-.63-.327-1.377-.397-1.777.203-.41.616-.273 1.325.475 1.782.084.051.18.09.278.13.267.11.543.222.596.594-.3.272-.552.131-.817-.017a5.206 5.206 0 0 0-.07-.038c-.27-.148-.421.033-.566.208l-.059.07c-.135.154-.157.298-.004.466.62.682 1.309.417 1.969.117.602-.274.616-.773.415-1.345-.146-.409-.476-.597-.816-.791-.208-.118-.419-.238-.595-.412Zm3.435 2.149c-.025.374-.047.69-.552.613-.34.024-.461-.126-.49-.444-.028-.291-.02-.584-.013-.877.018-.68.035-1.363-.389-2.041-.118-.19.065-.596.26-1.029.117-.259.238-.527.301-.764.055-.203.506-.179.698-.04.215.157.197.394.18.634-.019.24-.037.484.184.647.492.362.36.576.018 1.026-.323.422-.273.942-.223 1.464.024.253.048.507.03.75l-.004.06Zm46.37-2.908c-.66-.192-.707-.617-.754-1.041-.02-.181-.04-.362-.108-.524-.128-.305-.722-.228-.74-.106-.043.294-.193.62-.332.925-.188.412-.358.783-.22.978.421.593.393 1.185.366 1.77-.015.315-.03.627.025.936a.798.798 0 0 1 0 .19c-.015.184-.03.37.278.393.31.022.636-.104.687-.382.058-.31.045-.634.032-.961-.03-.75-.06-1.517.767-2.178Zm7.069 1.577-.002-.566.001-.699v-.001c.002-.428.003-.856-.005-1.283-.007-.368.015-.633.512-.602.39.024.497.187.492.543-.013 1.358-.015 2.717-.013 4.075 0 .384-.181.481-.543.494-.446.018-.455-.22-.448-.545.01-.471.007-.944.006-1.416Zm-59.591-.22c0 .1-.004.179-.006.244a.772.772 0 0 0 .01.242c.058.203.02.465-.017.718-.063.433-.123.84.306.887.742.081.716-.483.691-1.014-.01-.219-.02-.432.025-.591.174-.623.346-1.499-.162-2.068a3.701 3.701 0 0 0-.142-.149c-.192-.192-.234-.234.158-.423.322-.157.289-.49.159-.768-.128-.27-.384-.296-.658-.237-.375.082-.486.373-.384.663.171.483.1.964.033 1.419-.057.383-.11.747-.013 1.077Zm52.56.135h-.006v-.083c0-.082 0-.164-.002-.244-.025-1.47.353-1.823 1.733-1.55.565.113.3.652.123.733-.89.411-.92 1.15-.95 1.883a7.392 7.392 0 0 1-.035.526l-.003.031c-.043.384-.083.745-.564.715-.346-.022-.322-.27-.299-.5.007-.069.014-.136.01-.195-.019-.306-.014-.613-.01-.92l.003-.396Zm18.027.044c0 .136 0 .272-.002.408-.002.305-.003.611.004.917.001.049-.001.101-.004.154-.012.278-.025.574.441.501.373-.057.634-.231.605-.717-.042-.736-.028-1.476-.013-2.215l.004-.211c.009-.41-.022-.722-.563-.72-.48.002-.478.29-.475.598v.073c.005.402.005.806.003 1.212Zm1.39-3.444c-.345.492-.687.977-1.527.936.04-.084.078-.17.116-.254.332-.74.63-1.403 1.738-1.112-.118.135-.222.283-.326.43Z" fill="#fff"/><path d="M61.404 21.928c-1.042 2.199-1.508 4.475-2.333 6.62-.356.923-.625 1.879-.936 2.817-.133.395-.305.75-.804.768-.56.02-.492-.47-.598-.777-1.055-3.084-2.093-6.172-3.135-9.26a.583.583 0 0 0-.293-.364c0 2.757-.031 5.512.02 8.267.013.722.578 1.152 1.276 1.35.298.084.534.197.494.595-.046.463-.373.368-.649.37-1.029.007-2.06.014-3.088 0-.296-.004-.687.15-.749-.386-.048-.426.248-.464.52-.56.924-.332 1.28-1.038 1.28-1.972 0-2.426-.023-4.854.01-7.28.014-.965-.527-1.27-1.34-1.373-.211-.027-.472-.049-.41-.371.046-.245.274-.199.444-.201 1.287-.005 2.574.018 3.86-.011.546-.014.654.316.789.724.642 1.951 1.304 3.896 1.964 5.84.14.412.197.862.585 1.28.78-2.343 1.566-4.617 2.283-6.915.223-.72.556-.989 1.32-.938 1.135.073 2.278.013 3.42.022.271.002.633-.1.64.373.006.428-.298.475-.603.437-1.022-.13-1.243.389-1.23 1.298.042 2.647.038 5.296.007 7.943-.011.867.243 1.342 1.192 1.25.267-.027.63-.098.636.377.007.505-.351.468-.687.468-1.618 0-3.236.004-4.854 0-.316 0-.706.084-.7-.444.007-.552.433-.413.722-.402.718.031 1.113-.207 1.108-.995-.013-2.72 0-5.442-.004-8.162 0-.083-.066-.172-.157-.388Zm-33.198-1.755c.735 0 1.47-.002 2.205 0 .26 0 .52-.009.55.369.026.35-.248.518-.464.5-1.181-.09-1.082.707-1.031 1.447.066.973-.444 2.273.234 2.828.578.474 1.826.152 2.777.145 1.638-.01 1.464.26 1.488-1.446.006-.514-.02-1.03.004-1.543.038-.777.038-1.499-1.042-1.488-.333.005-.443-.2-.408-.507.035-.307.27-.303.488-.303 1.545-.004 3.088-.004 4.633-.004.237 0 .437.053.455.346.02.33-.148.486-.46.464-1.017-.066-1.096.574-1.09 1.355a685.4 685.4 0 0 1 .007 7.722c-.002.8.042 1.523 1.146 1.415.262-.026.4.1.4.384 0 .318-.122.466-.453.464-1.546-.007-3.089 0-4.634-.009-.16 0-.452.044-.404-.205.047-.243.044-.662.453-.631 1.009.081.896-.612.898-1.235.002-.993-.022-1.986.014-2.977.02-.577-.184-.782-.762-.758-1.21.051-2.76-.39-3.532.201-.735.565-.141 2.206-.225 3.369-.06.81-.02 1.514 1.1 1.397.246-.026.407.093.41.387.002.33-.157.459-.47.459-1.581-.005-3.162-.01-4.744-.007-.334 0-.453-.159-.45-.472.001-.296.178-.393.42-.369 1.012.102 1.105-.49 1.093-1.3a349.792 349.792 0 0 1 0-8.053c.007-.702-.145-1.157-.942-1.141-.32.006-.607-.045-.56-.47.05-.46.419-.327.681-.334.742-.011 1.48 0 2.215 0Zm11.437 9.883c0-.514-.01-1.029.004-1.543.004-.238-.082-.528.305-.596.357-.064.538.077.65.41.257.762.537 1.535 1.16 2.076 1.366 1.187 2.717 2.092 4.54 1.004.747-.444 1.279-.991 1.248-1.912-.033-.951-.658-1.468-1.473-1.713-1.086-.329-2.218-.503-3.302-.834-2.552-.78-3.54-2.647-2.631-4.859.814-1.98 3.638-2.848 5.885-1.786.68.323 1.304 1.022 1.918-.157.181-.348.673-.262.68.33.013 1.066.029 2.13.035 3.196.003.245.051.536-.346.547-.285.007-.475-.068-.576-.375a5.557 5.557 0 0 0-1.089-1.9c-1.004-1.146-2.439-1.526-3.779-1.089-.847.276-1.243.857-1.298 1.678-.055.843.437 1.37 1.175 1.682 1.123.475 2.34.6 3.505.918 2.06.563 3.029 1.636 3.073 3.358.064 2.58-2.433 4.479-5.283 4.004-.763-.128-1.523-.32-2.141-.812-.497-.397-.826-.311-1.132.207-.195.325-.464.625-.89.464-.422-.159-.208-.57-.232-.865-.037-.475-.01-.954-.01-1.433h.004Zm13.335 19.587c-.254.75-.536 1.422-.697 2.12-.115.494-.453.598-.826.666-.49.09-.47-.358-.574-.642-.258-.713-.499-1.433-.812-2.342-.19.97-.385 1.72-.468 2.479-.06.55-.369.545-.758.505-.54-.055-.253-.424-.218-.656.21-1.302.45-2.598.662-3.9.057-.347.093-.634.559-.65.465-.015.644.23.77.617.274.858.567 1.71.947 2.847.382-1.132.682-1.97.94-2.82.137-.453.367-.69.86-.63.492.06.366.42.42.737.206 1.215.469 2.422.674 3.636.049.283.43.737-.267.824-.574.07-.622-.287-.724-.716-.157-.658-.057-1.388-.488-2.075Z" fill="#161616"/><path fill-rule="evenodd" clip-rule="evenodd" d="M76.242 52.782c-.415-.136-.823-.27-1.176-.026.422.98 1.232 1.397 2.367 1.17.942-.19 1.481-.757 1.485-1.757.002-.216.007-.432.012-.648.01-.482.022-.964-.007-1.443-.009-.144.004-.31.017-.48.053-.673.109-1.381-1.21-.811-.074.03-.181-.025-.294-.084a1.105 1.105 0 0 0-.213-.093c-1.108-.298-2.064.329-2.245 1.466-.265 1.667.795 2.52 2.912 2.267-.476.823-1.069.629-1.648.439Zm-.246-2.326c.01-.62.382-.91.931-.987.674.073 1.051.42 1.036 1.073-.011.6-.387.982-.97.975-.626-.008-1.01-.393-.997-1.061Z" fill="#161616"/><path d="M20.848 50.46c0-.331.026-.665-.005-.993-.077-.808.263-.755.992-.872 1.101-.177 2.13.525 3.24-.02.711-.349 1.433.104 1.592.9.154.782.09 1.608.101 2.413.005.38-.362.486-.6.512-.342.038-.466-.269-.468-.596-.002-.552-.005-1.103-.011-1.655-.005-.336-.148-.565-.501-.616-.33-.047-.576.077-.713.384-.21.468-.307.947-.336 1.47-.017.342.404 1.013-.362 1.029-.839.015-.366-.7-.454-1.084-.08-.351-.027-.733-.05-1.1-.026-.401-.16-.739-.646-.712-.44.024-.66.317-.686.724a16.88 16.88 0 0 0-.018 1.653c.015.46-.216.54-.612.55-.428.009-.474-.223-.468-.554.014-.477.005-.954.005-1.433Z" fill="#161616"/><path fill-rule="evenodd" clip-rule="evenodd" d="M40.272 48.503c-.002.092-.005.184-.005.277a1.861 1.861 0 0 0-.11-.008c-.066-.003-.115-.005-.152-.027-.872-.455-1.66-.318-2.257.44-.6.76-.595 1.646-.139 2.47.477.86 1.29 1.043 2.17.741.232-.08.39-.042.573.002.037.01.074.018.114.027.578.126.896-.106.887-.749a161.086 161.086 0 0 1-.002-3.73c.002-.389-.077-.603-.538-.607-.44-.005-.59.145-.55.567.018.197.013.396.009.597Zm-1.002.988c.68-.027.993.364 1.028 1.009-.024.649-.302 1.073-.989 1.075-.697.004-.991-.468-.982-1.07.007-.56.318-.99.943-1.014Zm-20.61 2.022c-.578.272-1.112.197-1.47-.653.256 0 .501-.004.739-.007a17.896 17.896 0 0 1 1.528.02c.706.048.804-.276.66-.852-.278-1.117-1.406-1.753-2.572-1.433-1.112.305-1.684 1.422-1.34 2.62.3 1.047 1.495 1.607 2.687 1.239l.007-.003c.408-.125.97-.298.819-.794-.104-.344-.625-.342-1.058-.137Zm-1.4-1.587h1.72c-.794-.733-.836-.733-1.72 0Zm40.405 1.56c-.563.288-1.124.248-1.625-.624.243 0 .47.002.684.005.484.005.909.01 1.334-.016.089-.006.188.008.29.023.272.038.554.077.677-.26.139-.38.008-.79-.208-1.152-.53-.89-1.748-1.238-2.7-.764-.95.473-1.355 1.751-.878 2.751.459.962 1.657 1.39 2.733.954l.034-.014c.33-.134.798-.324.678-.688-.116-.35-.562-.446-1.02-.215Zm.344-1.518c-.978-.797-1.17-.78-1.693 0h1.693ZM44.63 51.49c-.566.294-1.127.226-1.54-.52l.146-.051a.5.5 0 0 1 .166-.044c.394-.008.788-.01 1.181-.012l.472-.003c1.075-.007 1.279-.351.775-1.316-.486-.934-1.644-1.311-2.655-.865-.972.43-1.47 1.737-1.03 2.686.464.993 1.743 1.48 2.815 1.035l.059-.023c.326-.133.777-.317.648-.679-.115-.32-.574-.448-1.038-.207Zm-1.27-1.518c-.102-.008-.208-.017-.318-.024.726-.682 1.252-.733 1.907-.062-.563.166-1.024.13-1.59.086Zm41.974.828a5 5 0 0 0 .004-.177h-.042c0-.19.015-.385.031-.581.035-.445.07-.89-.075-1.266-.132-.343-.385-.242-.66-.132-.23.092-.475.19-.678.039a.576.576 0 0 0-.179-.076l-.024-.008c-.801-.258-1.47-.022-1.934.643-.554.79-.596 1.673-.044 2.47.42.609.96 1.139 1.815.574.13-.087.384-.08.536-.016 1.194.506 1.377-.11 1.256-1.097-.015-.123-.01-.248-.006-.373Zm-1.996-1.307c.667-.044.996.364 1.077 1.018-.062.598-.3 1.055-.998 1.057-.62.007-.953-.338-.995-.942-.044-.647.252-1.089.916-1.133Zm-51.896 1.396c.003-.105.006-.212.006-.325a4.444 4.444 0 0 1 .01-.603c.048-.82.098-1.669-1.482-1.282-.047.01-.102-.023-.16-.058a.47.47 0 0 0-.138-.066c-.8-.17-1.477.064-1.905.753-.477.768-.526 1.609-.018 2.384.424.649.958 1.1 1.817.598.23-.135.552-.07.845.05.833.34 1.135-.006 1.036-.847a4.262 4.262 0 0 1-.01-.605Zm-2.044-1.414c.644-.02 1.013.354 1.015 1.031-.007.643-.271 1.058-.97 1.064-.642.007-.946-.395-.975-.964-.03-.614.254-1.11.93-1.13Zm36.684-.971a1.982 1.982 0 0 0-2.02 1.967c-.007 1.205.879 2.113 2.033 2.09 1.15-.024 1.98-.876 1.99-2.04.006-1.134-.86-2.006-2.003-2.017Zm-1.009 2.042c-.007-.596.322-1.04.978-1.062.72.031 1.015.455.993 1.082-.02.636-.375 1.024-1.048 1.004-.647-.017-.916-.496-.923-1.024Z" fill="#161616"/><path d="M6.821 47.352c.312 0 .495.004.678-.002.38-.014.616.225.8.496.116.175-.047.323-.182.457-.285.285-.514.298-.825.003-.173-.164-.53-.221-.696.028-.185.278.11.457.287.625.398.377.85.706 1.201 1.121.616.722.552 1.638-.086 2.146-.693.552-1.848.479-2.378-.188-.145-.183-.543-.428-.147-.713.245-.178.543-.33.865-.033.234.217.408.835.883.221.386-.499.086-.797-.27-1.1-.333-.284-.69-.549-.986-.87-.413-.447-.654-.95-.389-1.595.276-.676.813-.638 1.245-.596Z" fill="#161616"/><path fill-rule="evenodd" clip-rule="evenodd" d="M71.936 52.49c1.402.105 2.267-.626 2.353-1.986.069-1.08-.717-1.947-1.819-2.004-1.095-.058-2.066.82-2.139 1.931-.064.95.753 1.998 1.605 2.06Zm1.415-2.023c.038.638-.285 1.028-.92 1.119-.69-.02-1.03-.393-1.044-1.031-.018-.656.344-1.042.995-1.055.616-.011.936.384.97.967Z" fill="#161616"/><path d="M33.265 49.623c.201.473.748.502 1.09.802.42.366.462.81.36 1.296-.134.64-.786.593-1.198.737-.384.132-.95.11-1.296-.338-.132-.17-.141-.335.007-.486.174-.178.353-.421.646-.251.265.152.515.254.82.097-.01-.607-.595-.585-.9-.848-.478-.41-.871-.84-.494-1.494.393-.682 1.023-.775 1.709-.504.287.113.695.265.539.672-.144.373-.473.538-.881.236-.104-.078-.278-.106-.402.081Zm-21.393.051c.466.46 1.177.545 1.41 1.203.202.572.188 1.07-.414 1.345-.658.298-1.35.565-1.97-.117-.152-.168-.13-.312.005-.466.166-.19.318-.446.625-.278.289.159.558.35.887.055-.073-.508-.56-.532-.874-.724-.748-.46-.885-1.168-.475-1.782.4-.6 1.148-.532 1.777-.203.201.104.541.239.391.552-.108.223-.278.552-.669.351-.196-.1-.401-.2-.693.064Zm2.883 2.762c-.34.024-.461-.124-.492-.444-.093-.967.205-1.947-.402-2.918-.19-.303.395-1.161.56-1.793.054-.203.506-.179.698-.04.433.314-.077.959.365 1.28.492.363.362.577.017 1.027-.479.63-.137 1.468-.192 2.214-.026.4-.022.755-.554.674Zm46.923-3.521c-1.188.949-.607 2.117-.797 3.139-.05.278-.377.402-.687.382-.421-.029-.24-.364-.278-.583-.156-.885.256-1.795-.39-2.706-.241-.338.45-1.21.551-1.903.018-.122.612-.199.74.106.225.54-.082 1.291.86 1.565Zm7.066 1.011c0-.66.011-1.323-.004-1.983-.01-.368.015-.63.512-.602.393.024.497.187.492.543-.013 1.358-.015 2.717-.013 4.075 0 .384-.179.481-.543.494-.446.018-.455-.22-.448-.545.013-.66.004-1.32.004-1.982Zm-59.589.346c-.212-.721.296-1.605-.022-2.496-.102-.29.008-.58.384-.663.273-.06.53-.033.658.237.13.278.165.611-.16.768-.476.23-.31.243-.015.572.51.57.336 1.446.161 2.068-.152.545.331 1.72-.715 1.605-.68-.075-.132-1.055-.29-1.605-.026-.102-.001-.219-.001-.486Zm52.554.135c0-.11.002-.218 0-.329-.025-1.47.353-1.823 1.733-1.55.567.113.3.652.123.733-1.106.512-.887 1.526-.984 2.409-.044.395-.073.777-.568.746-.452-.029-.273-.44-.289-.695-.026-.438-.006-.877-.006-1.316l-.01.002Zm18.035.044v-1.214c0-.333-.044-.669.475-.671.54-.002.57.309.563.72-.016.808-.038 1.62.008 2.426.03.485-.231.66-.604.717-.555.086-.429-.35-.438-.656-.013-.439-.006-.88-.004-1.322Zm-.139-2.507c.39-.833.62-1.692 1.854-1.367-.512.583-.761 1.42-1.854 1.367Z" fill="#161616"/></svg>